<svg xmlns="http://www.w3.org/2000/svg" xmlns:xlink="http://www.w3.org/1999/xlink" viewBox="0 0 293 258.53"><defs><style>.cls-1,.cls-2,.cls-3,.cls-4,.cls-6{stroke:#000;stroke-linecap:round;stroke-linejoin:round;stroke-width:8px;}.cls-1{fill:url(#linear-gradient);}.cls-2{fill:url(#linear-gradient-2);}.cls-3{fill:url(#linear-gradient-3);}.cls-4{fill:url(#linear-gradient-4);}.cls-5{fill:#fff;}.cls-6{fill:none;}.cls-7{fill:#f6d198;}</style><linearGradient id="linear-gradient" x1="218.55" y1="234.36" x2="74.42" y2="90.24" gradientUnits="userSpaceOnUse"><stop offset="0" stop-color="#16817a"/><stop offset="0.06" stop-color="#298279"/><stop offset="0.25" stop-color="#678677"/><stop offset="0.43" stop-color="#9a8a75"/><stop offset="0.61" stop-color="#c38d73"/><stop offset="0.76" stop-color="#df8e72"/><stop offset="0.9" stop-color="#f19071"/><stop offset="1" stop-color="#f79071"/></linearGradient><linearGradient id="linear-gradient-2" x1="218.53" y1="168.27" x2="74.44" y2="24.18" xlink:href="#linear-gradient"/><linearGradient id="linear-gradient-3" x1="4" y1="115.76" x2="289" y2="115.76" xlink:href="#linear-gradient"/><linearGradient id="linear-gradient-4" x1="4" y1="142.76" x2="289" y2="142.76" xlink:href="#linear-gradient"/></defs><title>chill</title><g id="Layer_2" data-name="Layer 2"><g id="Layer_1-2" data-name="Layer 1"><path class="cls-1" d="M271,142.76a125.28,125.28,0,0,1-249.09-.05"/><path class="cls-2" d="M21.95,115.82A125.28,125.28,0,0,1,271,115.76"/><line class="cls-3" x1="4" y1="115.76" x2="289" y2="115.76"/><line class="cls-4" x1="4" y1="142.76" x2="289" y2="142.76"/><ellipse class="cls-5" cx="146.5" cy="129.26" rx="100.64" ry="102.11"/><path class="cls-6" d="M250,142.76a104.36,104.36,0,0,1-207-.11"/><path class="cls-6" d="M43,115.87a104.36,104.36,0,0,1,207-.1"/><circle class="cls-7" cx="146.5" cy="129.26" r="41.44"/><path d="M146.49,201.06a6.88,6.88,0,0,1-5.15-2.31c-39.24-44.14-39.24-88.92,0-133.07a7.09,7.09,0,0,1,10.29,0c39.24,44.14,39.24,88.92,0,133.07a6.83,6.83,0,0,1-5.14,2.31Zm0-120.14C119,115.37,119,149,146.49,183.49,174,149,174,115.37,146.49,80.92Zm0,0"/><path d="M146.09,201.06a4.8,4.8,0,0,1-.62,0C90.16,196,60.41,164.57,57,107.56a6.8,6.8,0,0,1,2-5.27,7.55,7.55,0,0,1,5.27-2c24.48,1.46,44.41,7.85,59.22,19a6.88,6.88,0,1,1-8.28,11c-11-8.3-25.73-13.52-43.79-15.56,5.07,44.71,29.75,68.49,75.26,72.6a6.89,6.89,0,0,1-.64,13.74Zm0,0"/><path d="M146.89,201.06a6.89,6.89,0,0,1-.62-13.74c45.51-4.12,70.21-27.89,75.26-72.6-18.07,2-32.76,7.27-43.79,15.56a6.88,6.88,0,1,1-8.28-11c14.82-11.15,34.73-17.53,59.22-19a7.06,7.06,0,0,1,5.27,2,6.92,6.92,0,0,1,2,5.27c-3.39,57-33.14,88.46-88.45,93.47a5,5,0,0,1-.63,0Zm0,0"/></g></g></svg>