<svg xmlns="http://www.w3.org/2000/svg" xmlns:xlink="http://www.w3.org/1999/xlink" viewBox="0 0 293 258.53"><defs><style>.cls-1,.cls-2,.cls-3,.cls-4,.cls-6{stroke:#000;stroke-linecap:round;stroke-linejoin:round;stroke-width:8px;}.cls-1{fill:url(#linear-gradient);}.cls-2{fill:url(#linear-gradient-2);}.cls-3{fill:url(#linear-gradient-3);}.cls-4{fill:url(#linear-gradient-4);}.cls-5{fill:#fff;}.cls-6{fill:none;}.cls-7{fill:#f6d198;}</style><linearGradient id="linear-gradient" x1="218.55" y1="234.36" x2="74.42" y2="90.24" gradientUnits="userSpaceOnUse"><stop offset="0" stop-color="#16817a"/><stop offset="0.06" stop-color="#298279"/><stop offset="0.25" stop-color="#678677"/><stop offset="0.43" stop-color="#9a8a75"/><stop offset="0.61" stop-color="#c38d73"/><stop offset="0.76" stop-color="#df8e72"/><stop offset="0.9" stop-color="#f19071"/><stop offset="1" stop-color="#f79071"/></linearGradient><linearGradient id="linear-gradient-2" x1="218.53" y1="168.27" x2="74.44" y2="24.18" xlink:href="#linear-gradient"/><linearGradient id="linear-gradient-3" x1="4" y1="115.76" x2="289" y2="115.76" xlink:href="#linear-gradient"/><linearGradient id="linear-gradient-4" x1="4" y1="142.76" x2="289" y2="142.76" xlink:href="#linear-gradient"/></defs><title>energetic</title><g id="Layer_2" data-name="Layer 2"><g id="Layer_1-2" data-name="Layer 1"><path class="cls-1" d="M271,142.76a125.28,125.28,0,0,1-249.09-.05"/><path class="cls-2" d="M21.95,115.82A125.28,125.28,0,0,1,271,115.76"/><line class="cls-3" x1="4" y1="115.76" x2="289" y2="115.76"/><line class="cls-4" x1="4" y1="142.76" x2="289" y2="142.76"/><ellipse class="cls-5" cx="146.5" cy="129.26" rx="100.64" ry="102.11"/><path class="cls-6" d="M250,142.76a104.36,104.36,0,0,1-207-.11"/><path class="cls-6" d="M43,115.87a104.36,104.36,0,0,1,207-.1"/><circle class="cls-7" cx="146.5" cy="129.26" r="41.44"/><path d="M81.08,150.44h42.36v56.48a7.06,7.06,0,0,0,12.45,4.56l77.65-91.77a7.06,7.06,0,0,0-5.39-11.62H165.79V51.61a7.06,7.06,0,0,0-12.45-4.56L75.69,138.82a7.06,7.06,0,0,0,5.39,11.62Zm70.59-79.56v44.26a7.06,7.06,0,0,0,7.06,7.06h34.19l-55.37,65.44V143.38a7.06,7.06,0,0,0-7.06-7.06H96.3Zm0,0"/></g></g></svg>