<svg xmlns="http://www.w3.org/2000/svg" xmlns:xlink="http://www.w3.org/1999/xlink" viewBox="0 0 293 258.53"><defs><style>.cls-1,.cls-2,.cls-3,.cls-4,.cls-6,.cls-8{stroke:#000;}.cls-1,.cls-2,.cls-3,.cls-4,.cls-6{stroke-linecap:round;stroke-linejoin:round;stroke-width:8px;}.cls-1{fill:url(#linear-gradient);}.cls-2{fill:url(#linear-gradient-2);}.cls-3{fill:url(#linear-gradient-3);}.cls-4{fill:url(#linear-gradient-4);}.cls-5{fill:#fff;}.cls-6{fill:none;}.cls-7{fill:#f6d198;}.cls-8{stroke-miterlimit:10;stroke-width:3px;}</style><linearGradient id="linear-gradient" x1="218.55" y1="234.36" x2="74.42" y2="90.24" gradientUnits="userSpaceOnUse"><stop offset="0" stop-color="#16817a"/><stop offset="0.06" stop-color="#298279"/><stop offset="0.25" stop-color="#678677"/><stop offset="0.43" stop-color="#9a8a75"/><stop offset="0.61" stop-color="#c38d73"/><stop offset="0.76" stop-color="#df8e72"/><stop offset="0.9" stop-color="#f19071"/><stop offset="1" stop-color="#f79071"/></linearGradient><linearGradient id="linear-gradient-2" x1="218.53" y1="168.27" x2="74.44" y2="24.18" xlink:href="#linear-gradient"/><linearGradient id="linear-gradient-3" x1="4" y1="115.76" x2="289" y2="115.76" xlink:href="#linear-gradient"/><linearGradient id="linear-gradient-4" x1="4" y1="142.76" x2="289" y2="142.76" xlink:href="#linear-gradient"/></defs><title>happy</title><g id="Layer_2" data-name="Layer 2"><g id="Layer_1-2" data-name="Layer 1"><path class="cls-1" d="M271,142.76a125.28,125.28,0,0,1-249.09-.05"/><path class="cls-2" d="M21.95,115.82A125.28,125.28,0,0,1,271,115.76"/><line class="cls-3" x1="4" y1="115.76" x2="289" y2="115.76"/><line class="cls-4" x1="4" y1="142.76" x2="289" y2="142.76"/><ellipse class="cls-5" cx="146.5" cy="129.26" rx="100.64" ry="102.11"/><path class="cls-6" d="M250,142.76a104.36,104.36,0,0,1-207-.11"/><path class="cls-6" d="M43,115.87a104.36,104.36,0,0,1,207-.1"/><circle class="cls-7" cx="146.5" cy="129.26" r="41.44"/><path class="cls-8" d="M200.82,74.94a76.82,76.82,0,1,0,22.5,54.32A76.32,76.32,0,0,0,200.82,74.94Zm-54.32,122a67.67,67.67,0,1,1,67.67-67.67A67.75,67.75,0,0,1,146.5,196.94Z"/><path class="cls-8" d="M109.19,115.44a10.07,10.07,0,0,1,14.23,0,4.57,4.57,0,1,0,6.47-6.47,19.23,19.23,0,0,0-27.16,0,4.57,4.57,0,0,0,6.47,6.47Z"/><path class="cls-8" d="M169.58,115.44a10.07,10.07,0,0,1,14.23,0,4.57,4.57,0,1,0,6.47-6.47,19.23,19.23,0,0,0-27.16,0,4.57,4.57,0,1,0,6.47,6.47Z"/><path class="cls-8" d="M187,132.62H106a4.57,4.57,0,0,0-4.57,4.57,45.12,45.12,0,0,0,90.23,0A4.57,4.57,0,0,0,187,132.62ZM146.5,173.16a36,36,0,0,1-35.68-31.4h71.36A36,36,0,0,1,146.5,173.16Z"/></g></g></svg>