<svg xmlns="http://www.w3.org/2000/svg" viewBox="0 0 1411.98 860.5"><defs><style>.cls-1{fill:#f7cc7f;}.cls-2{fill:#f47458;}.cls-3{fill:#b75742;}.cls-4{fill:#13375b;}.cls-5{fill:#466eb6;}.cls-6{fill:#355389;}.cls-7{fill:#efefef;}.cls-8{fill:#f48c7f;}.cls-9{fill:#184655;}.cls-10{fill:#3c8f7c;}.cls-11{fill:#96d9c9;}.cls-12{fill:#f7a491;}.cls-13{fill:#fae0b2;}.cls-14{fill:#ffd09f;}.cls-15{fill:#ffb769;}.cls-16{fill:#f70;}.cls-17{fill:#fff;}.cls-18{fill:#f8a492;}.cls-19{fill:#86b1f2;}.cls-20{fill:#50bfa5;}.cls-21{fill:#9bc1f9;}.cls-22{fill:#07345a;}</style></defs><title>home-intro</title><g id="Layer_2" data-name="Layer 2"><g id="Layer_1-2" data-name="Layer 1"><path class="cls-1" d="M262.26,357.6a10.35,10.35,0,0,0,2.65.72,9.52,9.52,0,0,1,1.93-7.15l-2.3-3C262.93,350.31,261,353.82,262.26,357.6Z"/><path class="cls-1" d="M279.73,360.92c-3-4.09-6.28-8.38-9.5-12.64l-.34.16a8.78,8.78,0,0,0-1.35.89,8.09,8.09,0,0,0-1.27,1.27c-.15.19-.28.37-.42.56,3.56,4.59,7.11,9.1,10.33,13.25A13.22,13.22,0,0,0,279.73,360.92Z"/><path class="cls-1" d="M290.17,382.8s2,4.32-.18,6.84c0,0-2.46,2.95-4.44-.94l-.2-.27a1.38,1.38,0,0,0-1.88-.31,1.57,1.57,0,0,0-.46,2,4.08,4.08,0,0,0,1.31,1.69c4.84,4,10.74-1.08,10-6.85-.41-3.58-5.21-11-11.57-19.82a25.75,25.75,0,0,1-2.75,3C285.35,375,289.31,380.48,290.17,382.8Z"/><path class="cls-1" d="M277.17,364.42l2.88,3.72a25.75,25.75,0,0,0,2.75-3q-1.48-2.05-3.07-4.2A13.22,13.22,0,0,1,277.17,364.42Z"/><path class="cls-1" d="M264.54,348.19a15.65,15.65,0,0,1,1.87-2.09,13.8,13.8,0,0,1,1.38-1c-2.77-3.68-5.48-7.29-7.94-10.69-.63,2-1.14,3.84-1.56,5.59C260.31,342.66,262.41,345.43,264.54,348.19Z"/><path class="cls-1" d="M254.17,334.34c1.31,1.83,2.69,3.71,4.12,5.62.42-1.75.93-3.61,1.56-5.59-1.41-1.94-2.74-3.82-4-5.6C255.37,330.64,254.78,332.49,254.17,334.34Z"/><path class="cls-1" d="M263.2,366.11c-1.88-1-9.62-6.39-4.91-26.14-1.43-1.91-2.81-3.8-4.12-5.62-.72,2.18-1.45,4.36-2.09,6.55-1.56,5.3-2.88,11-2.11,16.39,1,7.08,6.14,12.24,12.51,14.71a15.63,15.63,0,0,0,10.6.46,19.4,19.4,0,0,0,7-4.31l-2.88-3.72C273.94,367.58,268.94,369.06,263.2,366.11Z"/><path class="cls-1" d="M255.8,308.76c-4.4-2.32-13.73-2.53-13,5.62.35,3.69,5,11.19,11.33,20,.61-1.85,1.2-3.7,1.71-5.57-6.27-9.12-9.71-15.72-6.16-16.15a6.86,6.86,0,0,1,6.36,3.33c1.72,2.68,1.29,6.3.65,9.37-.24,1.16-.54,2.31-.85,3.45,1.22,1.78,2.56,3.66,4,5.6q.4-1.28.87-2.63c2-5.65,2.27-12.54.85-16.27A12.94,12.94,0,0,0,255.8,308.76Z"/><path class="cls-1" d="M271.55,347.78a8.78,8.78,0,0,1,3.48-.26c-.73-.1,3.76-.13,5.55,5a11,11,0,0,1-.86,8.41q1.58,2.14,3.07,4.2l.4-.52c9.47-12.84-4.58-26.68-15.4-19.53l2.43,3.22A7.66,7.66,0,0,1,271.55,347.78Z"/><path class="cls-1" d="M264.54,348.19l2.3,3c.13-.19.27-.37.42-.56a8.09,8.09,0,0,1,1.27-1.27,8.78,8.78,0,0,1,1.35-.89l.34-.16-2.43-3.22a13.8,13.8,0,0,0-1.38,1A15.65,15.65,0,0,0,264.54,348.19Z"/><ellipse class="cls-1" cx="266.41" cy="357.57" rx="3.65" ry="5.13" transform="translate(-172.36 278.17) rotate(-43.05)"/><ellipse class="cls-1" cx="286.24" cy="388.61" rx="3.65" ry="5.13" transform="translate(-188.22 300.05) rotate(-43.05)"/><rect class="cls-2" x="788.34" y="475.9" width="83.62" height="164.7"/><path class="cls-3" d="M872,561.13l-2.23,0H788.34v79.49H872Z"/><rect class="cls-2" x="687.06" y="577.13" width="269.57" height="273.83" rx="85.55" ry="85.55" transform="translate(1535.89 -107.8) rotate(90)"/><rect class="cls-3" x="717.95" y="613.6" width="207.79" height="205.15" rx="65.01" ry="65.01" transform="translate(1538.02 -105.67) rotate(90)"/><circle class="cls-2" cx="789.76" cy="676.11" r="6.59"/><circle class="cls-2" cx="819.13" cy="676.11" r="6.59"/><circle class="cls-2" cx="848.5" cy="676.11" r="6.59"/><circle class="cls-2" cx="789.76" cy="700.02" r="6.59"/><circle class="cls-2" cx="819.13" cy="700.02" r="6.59"/><circle class="cls-2" cx="848.5" cy="700.02" r="6.59"/><circle class="cls-2" cx="789.76" cy="723.94" r="6.59"/><circle class="cls-2" cx="819.13" cy="723.94" r="6.59"/><circle class="cls-2" cx="848.5" cy="723.94" r="6.59"/><path class="cls-4" d="M450.24,848.83h0a3.45,3.45,0,0,0,3.7,3.11h922.51a3.45,3.45,0,0,0,3.7-3.11h0a3.45,3.45,0,0,0-3.7-3.11H453.94A3.45,3.45,0,0,0,450.24,848.83Z"/><path class="cls-5" d="M685.08,846.33s85.86,2.93,104.69-6,.57-20.71.57-20.71,40.79-9.67,43.48-22.41-16.89-10.73-16.89-10.73,39.08-27.31,33.48-35.7c-10.44-15.62-54.62,11.9-54.62,11.9s14.71-14.64,4.34-20.07c-15.64-8.19-38.34,31.22-38.34,31.22s1.14-9.54-10.89-10.13C729.3,762.66,685.08,846.33,685.08,846.33Z"/><path class="cls-6" d="M750.13,756.83c12,.59,11.64,17,11.64,17s22.87-46.57,38.5-38.37c10.37,5.43-.89,25-.89,25s40.57-25.34,51-9.72L692.26,840.34C697.37,830.54,730,755.85,750.13,756.83Z"/><path class="cls-5" d="M681.87,846.35s73.87-51.4,84.5-74-9.72-20.71-9.72-20.71,30.39-40,23.18-53.84S756,700.73,756,700.73s15.37-55,3.8-58.53c-21.55-6.51-42.64,63.18-42.64,63.18s-8.05-38.55-21.78-35.69c-20.71,4.32,0,61.32,0,61.32s-6.11-18.57-17.69-10C656.89,736.51,681.87,846.35,681.87,846.35Z"/><path class="cls-6" d="M657.45,721.95a29.39,29.39,0,0,0,15.66-19.15s.09-32.23,20.8-36.55c13.73-2.87,23.35,23,23.35,23s21-53.58,42.55-47.07L681.65,845.48C678.92,832.52,641.92,729.3,657.45,721.95Z"/><path class="cls-6" d="M330.54,855.34S153.85,762.67,122.37,714.23s6.95-52.4,6.95-52.4-82.26-82.14-70.08-116.1,55.49-.78,55.49-.78S62.16,423.64,87.58,412c47.35-21.71,111.67,107.49,111.67,107.49s-13.45-55.93,18.93-53.69c48.83,3.38,45.15,129.45,45.15,129.45s6.16-48.28,35.4-32.18C351.2,591.93,330.54,855.34,330.54,855.34Z"/><path class="cls-5" d="M309.62,543.69c-22.83-13.07-46.23,23.93-46.23,23.93s3.62-98.46-45.21-101.84c-32.38-2.24-18.93,53.69-18.93,53.69S134.93,390.28,87.58,412L330.79,853.3C332.95,822.73,354.84,569.57,309.62,543.69Z"/><path class="cls-6" d="M329,854.81s-153.19,14.75-192.26-3.24-10.16-38.08-10.16-38.08-84.42-19-90.25-45.24S71,745.7,71,745.7-10.28,690.23,1.09,672.8c21.18-32.48,113,23.3,113,23.3s-30.69-29.87-9.42-41.32c32.08-17.28,79.86,63.56,79.86,63.56s-2.56-19.67,22.24-21.16C251.28,694.5,329,854.81,329,854.81Z"/><path class="cls-5" d="M208.17,683c-24.81,1.49-23.64,35.36-23.64,35.36S136.26,622.74,104.18,640c-21.27,11.46,2.41,51.66,2.41,51.66S22.27,640.32,1.09,672.8L329.54,854C318.75,833.87,249.74,680.47,208.17,683Z"/><circle class="cls-1" cx="970.69" cy="207.35" r="26.91" transform="translate(504.89 1083.86) rotate(-74.07)"/><path class="cls-7" d="M955.69,207.5a14.39,14.39,0,1,0,27.67,7.9Z"/><polygon class="cls-8" points="859.01 45.9 844.16 44.7 842.14 58.44 827.46 57.9 823.9 70.79 812.85 72.19 813.56 77.78 828.34 75.92 831.71 63.7 846.98 64.26 848.97 50.75 862.43 51.84 859.01 45.9"/><polygon class="cls-8" points="294.53 225.37 293.8 234.41 279.12 234.85 276.42 247.94 265.49 250.07 266.56 255.6 281.19 252.76 283.74 240.35 299.01 239.9 300.11 226.29 294.53 225.37"/><rect class="cls-9" x="464.57" y="413.8" width="240.79" height="433.96" rx="19.06" ry="19.06"/><rect class="cls-10" x="383.3" y="525.71" width="403.32" height="210.15" rx="3.74" ry="3.74" transform="translate(1215.75 45.82) rotate(90)"/><circle class="cls-6" cx="589.33" cy="488.69" r="36.68"/><circle class="cls-9" cx="589.33" cy="488.69" r="12.79"/><circle class="cls-6" cx="589.33" cy="630.79" r="52"/><circle class="cls-9" cx="589.33" cy="630.79" r="18.14"/><circle class="cls-6" cx="584.96" cy="763.62" r="52"/><circle class="cls-9" cx="584.96" cy="763.62" r="18.14"/><path class="cls-11" d="M1116.67,233.07l11.85,1.21a1.85,1.85,0,0,1,1.43.93l5.7,10.28a1.86,1.86,0,0,0,3.3-.13l4.83-10.7a1.84,1.84,0,0,1,1.35-1l11.71-2.16a1.8,1.8,0,0,0,.89-3.13l-8.86-7.82a1.79,1.79,0,0,1-.6-1.58l1.53-11.61a1.84,1.84,0,0,0-2.75-1.8l-10.31,5.87a1.87,1.87,0,0,1-1.71.07l-10.76-5a1.83,1.83,0,0,0-2.59,2l2.49,11.45a1.79,1.79,0,0,1-.46,1.62l-8.18,8.51A1.81,1.81,0,0,0,1116.67,233.07Z"/><path class="cls-1" d="M429.19,365.69,441,366.9a1.84,1.84,0,0,1,1.43.93l5.7,10.28a1.86,1.86,0,0,0,3.3-.13l4.83-10.7a1.84,1.84,0,0,1,1.35-1l11.71-2.16a1.8,1.8,0,0,0,.89-3.13l-8.86-7.82a1.8,1.8,0,0,1-.6-1.58l1.53-11.61a1.84,1.84,0,0,0-2.75-1.8L449.26,344a1.87,1.87,0,0,1-1.71.07l-10.76-5a1.83,1.83,0,0,0-2.59,2l2.49,11.45a1.79,1.79,0,0,1-.46,1.62L428,362.64A1.81,1.81,0,0,0,429.19,365.69Z"/><path class="cls-1" d="M1109.2,357.5l11.85,1.21a1.84,1.84,0,0,1,1.43.93l5.7,10.28a1.86,1.86,0,0,0,3.3-.13l4.83-10.7a1.84,1.84,0,0,1,1.35-1l11.71-2.16a1.8,1.8,0,0,0,.89-3.13l-8.86-7.82a1.79,1.79,0,0,1-.6-1.58l1.53-11.61a1.84,1.84,0,0,0-2.75-1.8l-10.31,5.87a1.87,1.87,0,0,1-1.71.07l-10.76-5a1.83,1.83,0,0,0-2.59,2l2.49,11.45a1.79,1.79,0,0,1-.46,1.62l-8.18,8.51A1.81,1.81,0,0,0,1109.2,357.5Z"/><path class="cls-12" d="M1059.86,582.54c-.52.22,6.88,9.75,14.09,16.5,5.81,7.29,11.26,15.93,13.14,25.34,2.85,14.32.48,85,3,90.07,21.33,20.85,36.78,73.19,41.11,89.16a17.09,17.09,0,0,0,4.93,8.1h0l-.95,18-10.6,9.76s2.36-14.7-2.35-25.61c0,0-53.71-81.33-56.89-87.55-6.09-17.7-28.27-108.42-28.27-108.42l-5.15-20.85Z"/><path class="cls-2" d="M1147.71,817.52s-6.71,10.34-7.28,14.37-4.15,13.17-8.1,13.74c-.9.13-16.27,1.26-16.15-.66.09-1.47,5.65-3.56,8.23-5.35,4.46-3.08,11.4-28.2,11.4-28.2S1147.42,814.3,1147.71,817.52Z"/><path class="cls-12" d="M1014,613.88s-34.59,74-34.81,87c-.19,11.15,6,73.69,4.31,125.77-.06,1.88-2.44,4.38-5.91,6-2,.89-11.15,5.4-11.15,5.4l-1.52,3.07,32.44-2.31.66-7.52-.2-1.33s12.91-77.91,11.6-99.95c-.21-3.46-1.89-24.18-1.89-24.18l39-75.32L1022,598.2Z"/><path class="cls-4" d="M1093.25,702.73s0,0,0,0Z"/><path class="cls-4" d="M971.63,667.69l67.9-98.09a66.67,66.67,0,0,0,12.62,4c9.74,1.88,19.48,1.58,29.34,1.26a7.28,7.28,0,0,0,.06,1c1.13,8.09,11.86,20.61,14.07,45.15,2.51,27.85,1,76.24.14,79.41C1050.62,694.94,984.43,681.14,971.63,667.69Z"/><path class="cls-12" d="M1060.26,438.86c-.27,2.86-1.79,5.05-3.39,4.89s-2.68-2.62-2.41-5.48,1.79-5.05,3.39-4.89S1060.53,436,1060.26,438.86Z"/><path class="cls-2" d="M998.29,846.06H955.73a1.75,1.75,0,0,1-1.05-2.9c1.34-1.34,6.34-2.69,11.72-5.17,9.43,1,30.1-4.61,31.59-6.77C998.84,835.54,999.13,845.87,998.29,846.06Z"/><path class="cls-12" d="M957.08,493.07c.21-.54.7-.11,1.31.81-.79-3.33-.68-7.5-.06-7.87s1.22,5.36,2.93,8.51,3.28,7,3.51,6.86-2-4.51-3.71-7.74-.4-18.09,1.18-7.44,11.88,18.8,12.18,15.53-1.43-8.22.7-7.49,2.74,8,4.61,13.33a22.67,22.67,0,0,1,.22,4.68,2.71,2.71,0,0,0,1.78,2.56l27.08,9.85,17.68-30.8,20,4.26s-16.09,41.85-29.8,48.16c-6.25,2.88-35.47-17.61-47-27.31S956.2,495.4,957.08,493.07Z"/><path class="cls-1" d="M1035.28,474.5c-7.06,3.37-25.08,45.17-25.08,45.17l23.17,14.2,7.3-21.26S1044,470.36,1035.28,474.5Z"/><path class="cls-3" d="M1041.94,440.49c-3.44-8.54-6.84-17.15-3-27.64,3.14-8.49,10-14.1,18.59-16.35,24.36-6.37,24,10.07,59.21,6.63,36.44-3.56,51.08,36.06,47.71,49.17-16.13,62.73-88.57,32.16-98.38,21.76C1058.82,466.33,1044.16,446,1041.94,440.49Z"/><path class="cls-1" d="M1089.81,471s3.92-.18,14.49,4.65,33.23,36.25,33.23,36.25l-18.45,14.36-31.62-20.68S1083.45,471,1089.81,471Z"/><path class="cls-13" d="M1033.37,574.83c10.88,5.78,52.73,4.84,52.73,4.84,1-10.88,6.58-40,9-63.4,3-16.29-2-21-5.29-45.27,0-.16-16.88-1.34-16.88-1.34l-17.54.43s-15.26,1.23-20.11,4.41c-.34.22-2.27,27.7-.76,47.17,1,13.28,2.54,24,2.44,32.77C1036.82,567.19,1033.37,574.83,1033.37,574.83Z"/><path class="cls-13" d="M1029.91,508.3c.34,10.38,13.74,20.38,32.77,20.38s34.47-8.42,34.47-18.81-12.64-25-31.68-25S1029.48,495.13,1029.91,508.3Z"/><path class="cls-12" d="M1068.83,443.86s.37,2.64.94,6.27c1,6.65,1.57,17.56,2.91,20.88,1.18,2.92-9,30.53-12.37,22.84-5.88-13.49-5.71-17.55-6-21.14s-1.26-15.74-1.9-23.85l-.59-7.59Z"/><path class="cls-2" d="M1052.36,448.71l-.56-7.44,17,2.59s.43,2.48.9,6C1062.83,453.85,1056.62,452.59,1052.36,448.71Z"/><path class="cls-12" d="M1063.49,405.31a19.35,19.35,0,0,1,10.86,7.84c4.14,6.33,7,24.95-6.66,33.64s-24.27-3.6-24.45-15.6S1045.64,403.2,1063.49,405.31Z"/><ellipse class="cls-12" cx="1043.17" cy="426.21" rx="3.29" ry="5.65" transform="translate(-83.7 420.43) rotate(-21.93)"/><path class="cls-3" d="M1061.48,404.92s8.56,19.2,16.08,20.91,7.41,11.37,7.41,11.37-.17-22.31-7.21-27.42S1061.48,404.92,1061.48,404.92Z"/><ellipse class="cls-12" cx="1078.38" cy="431.03" rx="5.92" ry="4" transform="translate(341.27 1328.46) rotate(-72.39)"/><rect class="cls-14" x="924.78" y="472.24" width="23.99" height="1.89" transform="translate(1806.15 -114.71) rotate(119.13)"/><rect class="cls-15" x="925.13" y="472.83" width="23.99" height="1.1" transform="translate(1806.84 -114.73) rotate(119.13)"/><rect class="cls-14" x="933.06" y="476.41" width="23.46" height="1.89" transform="translate(1821.73 -115.51) rotate(119.13)"/><rect class="cls-15" x="933.28" y="476.77" width="23.46" height="1.4" transform="translate(1822.15 -115.52) rotate(119.13)"/><rect class="cls-14" x="941.31" y="481.01" width="23.46" height="1.89" transform="translate(1838.01 -115.88) rotate(119.13)"/><rect class="cls-15" x="941.64" y="481.56" width="23.46" height="1.15" transform="translate(1838.64 -115.89) rotate(119.13)"/><path class="cls-2" d="M1090.39,616.15c-7.46-6.76-12.11-20.83-14.9-26.51,0,0-3.64-7.41-14.58-7.59a32.35,32.35,0,0,1-28.66-19.2c-5.56-12.52,8-31.37,8-31.37l.59-1.05s8.92-21.41,22.5-23.27a32.35,32.35,0,0,1,31.41,14.27c5.9,9.21,14.12,8.41,14.12,8.41,6.29-.61,20.7-4.06,30.38-1.27,9,2.61,16.23,9.27,20.61,17.69,4.76,9.14,5.56,21.64-1.29,37.34-.37.84-4,8.23-5.19,10.23s-5.45,9-6,9.79c-9.75,14.08-20.81,20-31.08,20.74C1106.81,625.07,1097.37,622.47,1090.39,616.15Z"/><ellipse class="cls-3" cx="1075.41" cy="551.11" rx="19.82" ry="18.46" transform="translate(70.46 1222.17) rotate(-60.87)"/><ellipse class="cls-4" cx="1075.41" cy="551.11" rx="12.88" ry="11.99" transform="translate(70.47 1222.17) rotate(-60.87)"/><path class="cls-16" d="M929.62,456.07a20.42,20.42,0,0,0-10.92,19.4v.17l33.64,16.73c1.43-.46,6.3.68,6.3.68l6.78-12.17s-3.53-3.53-3.89-5l-31.92-19.81Zm24.65,25.37L935.66,470a3.29,3.29,0,0,1-.93-4.53h0a3.24,3.24,0,0,1,4.43-1.24l18.62,11.44a3.29,3.29,0,0,1,.93,4.53h0A3.24,3.24,0,0,1,954.27,481.45Zm-24.74-6.64h0a3.29,3.29,0,0,1,4.34-1.59L953.39,483a3.24,3.24,0,0,1,1.27,4.42h0a3.29,3.29,0,0,1-4.34,1.59l-19.52-9.82A3.24,3.24,0,0,1,929.53,474.81Z"/><path class="cls-9" d="M1064.94,545.27a13.3,13.3,0,0,0-1.27,10l-105-62.23,6.78-12.17,108.83,57.71A13.18,13.18,0,0,0,1064.94,545.27Z"/><rect class="cls-3" x="1092.97" y="571.78" width="52.21" height="7.77" transform="translate(2166.74 -121.56) rotate(119.13)"/><path class="cls-9" d="M961.8,473.07l0-.07a1,1,0,0,0-.4-1.42l-3.92-2.18a1,1,0,0,0-1.42.4l0,.07a1,1,0,0,0,.4,1.42l3.92,2.18A1,1,0,0,0,961.8,473.07Z"/><path class="cls-9" d="M953.51,468.45l0-.07a1,1,0,0,0-.4-1.42l-3.92-2.18a1,1,0,0,0-1.42.4l0,.07a1,1,0,0,0,.4,1.42l3.92,2.18A1,1,0,0,0,953.51,468.45Z"/><path class="cls-9" d="M945.82,463.71l0-.07a1,1,0,0,0-.4-1.42L941.53,460a1,1,0,0,0-1.42.4l0,.07a1,1,0,0,0,.4,1.42l3.92,2.18A1,1,0,0,0,945.82,463.71Z"/><path class="cls-9" d="M933.78,485.29l0-.07a1,1,0,0,0-.4-1.42l-3.92-2.18a1,1,0,0,0-1.42.4l0,.07a1,1,0,0,0,.4,1.42l3.92,2.18A1,1,0,0,0,933.78,485.29Z"/><path class="cls-9" d="M941.8,489.46l0-.07a1,1,0,0,0-.4-1.42l-3.92-2.18a1,1,0,0,0-1.42.4l0,.07a1,1,0,0,0,.4,1.42l3.92,2.18A1,1,0,0,0,941.8,489.46Z"/><path class="cls-9" d="M949.87,494l0-.07a1,1,0,0,0-.4-1.42l-3.92-2.18a1,1,0,0,0-1.42.4l0,.07a1,1,0,0,0,.4,1.42l3.92,2.18A1,1,0,0,0,949.87,494Z"/><polygon class="cls-11" points="958.65 493.05 965.44 480.88 966.82 481.61 960 493.85 958.65 493.05"/><polygon class="cls-11" points="967.98 498.58 975.02 485.96 975.6 486.27 968.55 498.92 967.98 498.58"/><polygon class="cls-11" points="976.53 503.65 983.8 490.62 984.38 490.93 977.1 503.99 976.53 503.65"/><polygon class="cls-11" points="983.81 507.96 991.27 494.58 991.85 494.89 984.38 508.3 983.81 507.96"/><polygon class="cls-11" points="991.09 512.28 998.75 498.55 999.33 498.85 991.66 512.61 991.09 512.28"/><polygon class="cls-11" points="997.81 516.26 1005.64 502.2 1006.22 502.51 998.37 516.59 997.81 516.26"/><polygon class="cls-11" points="1004.52 520.24 1012.54 505.86 1013.12 506.17 1005.09 520.57 1004.52 520.24"/><polygon class="cls-11" points="1010.2 523.6 1018.37 508.95 1018.95 509.26 1010.76 523.94 1010.2 523.6"/><polygon class="cls-11" points="1015.88 526.97 1024.2 512.04 1024.78 512.35 1016.44 527.3 1015.88 526.97"/><polygon class="cls-11" points="1021.37 530.22 1029.83 515.03 1030.41 515.34 1021.93 530.55 1021.37 530.22"/><polygon class="cls-11" points="1026.5 533.26 1035.11 517.83 1035.69 518.13 1027.07 533.6 1026.5 533.26"/><polygon class="cls-11" points="1031.36 536.14 1040.09 520.47 1040.67 520.78 1031.92 536.47 1031.36 536.14"/><polygon class="cls-11" points="1040.12 541.33 1049.09 525.24 1049.67 525.55 1040.68 541.66 1040.12 541.33"/><polygon class="cls-11" points="1044.4 543.87 1053.49 527.57 1054.07 527.88 1044.97 544.21 1044.4 543.87"/><polygon class="cls-11" points="1047.89 545.94 1057.07 529.47 1057.65 529.78 1048.46 546.27 1047.89 545.94"/><polygon class="cls-11" points="1051.57 548.12 1060.85 531.47 1061.42 531.78 1052.13 548.45 1051.57 548.12"/><rect class="cls-17" x="938.91" y="466.61" width="1.03" height="3.01" transform="translate(1805.74 -124.46) rotate(119.14)"/><rect class="cls-17" x="934.31" y="475.65" width="0.71" height="2.68" transform="translate(1806.66 -106.74) rotate(119.16)"/><rect class="cls-17" x="946.93" y="471" width="0.79" height="3.23" transform="translate(1821.68 -124.27) rotate(119.17)"/><rect class="cls-17" x="942.16" y="479.8" width="1.08" height="2.9" transform="translate(1822.08 -107.78) rotate(119.14)"/><rect class="cls-17" x="955.19" y="475.45" width="0.89" height="2.79" transform="translate(1837.51 -125.57) rotate(119.14)"/><rect class="cls-17" x="950.05" y="485.54" width="0.53" height="2.57" transform="translate(1837.75 -106.92) rotate(119.09)"/><polygon class="cls-11" points="1035.55 538.62 1044.39 522.75 1044.97 523.06 1036.11 538.96 1035.55 538.62"/><path class="cls-12" d="M1081,571.86c.11.26-3.68,1.08-7.12,2.07s-9.09,1-8.83,1.83c.2.64,3.69,1,6.88.77-.8.34-1.17.67-.75.94,1.75,1.12,11.75.49,20.94-3.42s62.68-33.28,57.26-41.54c-2-3-10.56-11.81-15.46-17.84l-14,10.9,7.21,7.88c-11.05,11.83-28,24.67-28.83,25.29-2.34,1.68-6.85.23-7.87.2-5.57-.15-12.74-.21-13.94,1.65s4,1.23,7.07,2.19-7.16,9.06-17.82,8.39,1.39,4.08,4.9,3.13S1080.85,571.44,1081,571.86Z"/><path class="cls-12" d="M1008.82,524.65l-27.08-9.85a2.71,2.71,0,0,1-1.78-2.56,22.67,22.67,0,0,0-.22-4.68c-1.87-5.29-2.48-12.6-4.61-13.33s-.39,4.22-.7,7.49-10.6-4.87-12.18-15.53-2.87,4.21-1.18,7.44,4.09,7.47,3.71,7.74-1.8-3.71-3.51-6.86-2.16-9-2.93-8.51-.73,4.54.06,7.87c-.61-.92-1.11-1.35-1.31-.81-.88,2.33,1.28,16.31,12.65,25.9s40.71,30.18,47,27.31Z"/><path class="cls-12" d="M643.85,256.62a12.14,12.14,0,0,0,.11-5.11,88.24,88.24,0,0,0-2.46-11.34c-.44-1,13.08-7.08,13.08-7.08S677,229.26,680,226.35s5.75-4.28,4.5-1.49c-2.27,5.05-8.05,12.75-9.41,13.87s-18.33,7.6-18.65,7.63,1.1,11,1.1,11Z"/><path class="cls-6" d="M657.92,250.2s-14.88-.75-15,.74c-2.06,33-1.8,43.76-2.41,44.18-2.09,1.41-37.14-22.69-42.61-23.89-2.61-.57-5.33-.1-7.94.28-6.22.92-4.13.53-7.4,1.08h0l-.28.05.73,5.87c7.78,5.49,35.26,99.42,36.6,99.2,1.51-.25,34.28,4,33.4,1.37-.14-.42-23.71-15.45-32.81-40.1-3.06-8.27-5.15-17.32-7.22-25.22,7.49,2.71,36.72,13,40.88,10.7C666.85,317.25,657.92,250.2,657.92,250.2Z"/><path class="cls-12" d="M732.91,413.86s32.36,19.68,33.83,23.67c2.13,5.75,28.31-5.25,21.63-5.68-1.54-.1-6.49-.75-6.92-.91-2.25-.88-32.36-29.5-32.36-29.5Z"/><path class="cls-1" d="M801.08,430.35l-19.08.7s-4.87,5.11-15.23,6.55a24.38,24.38,0,0,0,.35,10.39c.25.94.75,3.81,1.71,3.63,3.46-.65,12.49-4.07,22.84-7.45,0,0,13.89-4.71,21.53-10.61S801.08,430.35,801.08,430.35Z"/><path class="cls-3" d="M593.35,371.43A130.32,130.32,0,0,0,638.78,364c27-9.78,56.94-19.42,66.55-15.27,7.73,3.35,61,66.26,61,66.26l-15.94,14.8L694,380s-60.69,31-75.26,30C585.63,408,582.09,382.16,593.35,371.43Z"/><polygon class="cls-3" points="615.42 354.84 640.17 378.05 601.39 395.08 593.35 371.43 615.42 354.84"/><path class="cls-12" d="M673.48,467.36s2.93,36,2.83,42.12,18.07,22.42,15.27,16.34c-.64-1.4-2.43-6.07-2.48-6.52-.3-2.4.8-44,.8-44Z"/><path class="cls-1" d="M699,536.29l-9.69-16.46s-6.81-1.86-13-10.29a24.37,24.37,0,0,0-9,5.25c-.71.67-5.54,5.17-5.07,6,1.75,3.13,9.79,9.31,18.59,16.07,0,0,12.25,7.69,21.07,11.61S699,536.29,699,536.29Z"/><path class="cls-2" d="M700.24,392.6c-8.78-9.21-71.1-11.55-71.1-11.55l-21-30.77-35,27.74s7.33,29.57,11.12,37.26c5,10.24,30.46,7.78,45.92,5.78,14.23-1.84,40.6-2,40.6-2l.41,78.7s17.77,1.88,22.56.67C694.37,498.27,711.16,404.06,700.24,392.6Z"/><path class="cls-11" d="M582.53,272.67l-21.15,3.69s-.47.23-.61.27c-1.7.53,7.24,62.37,11.54,85.35s8.59,32.34,8.59,32.34,28.26-8.55,36.71-13c3.51-1.86,11.09-14,11.09-14s-10.54-11.14-17.48-30.45c-5.35-14.89-12.93-41.52-16.09-46.89C587.85,277.57,582.53,272.67,582.53,272.67Z"/><path class="cls-12" d="M559.76,257.52l1.63,18.86s16.6,22.11,23.28,18c5.61-3.48-1.81-20.91-1.81-20.91s-1.52-4-3.51-8.61a34.69,34.69,0,0,1-2.9-9.36C575.84,249,559.76,257.52,559.76,257.52Z"/><path class="cls-9" d="M571.14,212.7s8.28,9.75,9.86,18.6a46.53,46.53,0,0,1,.42,15.15l-25.73-24.26Z"/><ellipse class="cls-8" cx="579.87" cy="229.93" rx="3.32" ry="5.72" transform="translate(-36.18 131.97) rotate(-12.59)"/><path class="cls-12" d="M548.91,227.37c-.53,0,2.6,25.87,10.84,31.08s21.38,4.19,24.47-2.41c3.42-7.3-3.84-34.14-15.71-38.62S548.91,227.37,548.91,227.37Z"/><path class="cls-9" d="M545.09,211.52c-5.14,5.71-7.48,9.72-10.3,19.12-3.47,11.56,7.35,21.83,15.83,25.42s9.81,9.06,9.81,9.06l-.1-3.5a9.39,9.39,0,0,0-1.92-5.7c-.85-1.36-3.61-6.06-4.61-7.26-2.64-3.18-3.17-3.87-2.46-7.28.55-2.62-1.09-8.06-.27-12.37l10.42-3.57s6.5-2.4,9.41-6.7C579.27,206.39,558.62,196.19,545.09,211.52Z"/><ellipse class="cls-12" cx="551.39" cy="245.66" rx="3.32" ry="5.72" transform="translate(-46.95 325.45) rotate(-31.61)"/><path class="cls-18" d="M472.9,181c1.81,4.85,4.93,12.48,4.93,12.48.08,2.19.51,11.29,1.06,22.44l15.49-8.44s-2.33-18-1.74-19.19c.5-1,1.67,0,5.81-7.69,1.19-2.23,1-5.94,1-5.94s-.24-4.56-1.31-4.86a2.13,2.13,0,0,0-2.43,1.34c-.28.83,0,2.64-.24,3.46s-2.51,2-3.51,2.12-1.47-13.4-1.47-13.4.1-3.85.24-5.12c.11-1.08.71-4.29.71-4.29s.59-4.62-.84-4.8c-.85-.1-2.51,3.79-3.48,7.83-1.05,4.35-1.4,8.88-1.85,8.87-1.05,0-1.37-7.4-1.37-7.4a23.58,23.58,0,0,0,.42-5.05c.75-2.05,1-5.72-.79-5.82-.32,0-2,4.82-2,4.82s-.51,3.32-.85,4.88c-.6,2.76-.24,7-.5,8.86-.22,1.58-.65,1-.81,1.08a38.84,38.84,0,0,1-.24-5,29.6,29.6,0,0,1-.2-4.87,35.48,35.48,0,0,0,.09-5.18c-.17-3.82-2.51-3.15-2.92.41-.16,1.36-.32,2.83-.47,4.33-.61,5.82.08,11.28-.53,11.4-.79.15-1.44-9.86-1.44-9.86s-1.87-5.36-2.48-.11a44.86,44.86,0,0,0,.06,11.13C471.53,170.89,471.1,176.19,472.9,181Z"/><path class="cls-6" d="M561.36,276.4s-21.19,1.51-26.93-.31c-3.48-1.1-33.19-19.73-33.19-19.73l-6.64-58.53-19.24.81s-2.21,65.83,2.05,72.5c4.4,6.89,47.66,32.27,57.15,44.38,5.47,7,22,101.46,23.52,102.21,10.9,4.13,48.43,12.39,47.3,9.24C574.11,339.82,561.36,276.4,561.36,276.4Z"/><path class="cls-12" d="M651,240.32s5.57-3.21,7.08-3.92,6.43-2.25,6.43-2.25,6.86-8.94,8.82-9.39-3.52,9.29-3.52,9.29L667.37,237s4-4.3,4.73-4.92,6.25-10.94,8-10.51-2,7.67-3.74,11.5-11.58,7.22-11.58,7.22Z"/><path class="cls-19" d="M669.69,222.08c-.14-.16-14.64-16-42.36-25.76C587.78,182.39,520,197.66,499.83,154a38.86,38.86,0,0,1-3.76-14.14.7.7,0,0,1,1.41,0h0a38.27,38.27,0,0,0,3.66,13.64C520.9,196.16,588,181,627.81,195c19.9,7,36.26,18.73,42.94,26.15A.7.7,0,0,1,669.69,222.08Z"/><path class="cls-19" d="M669.15,214.6c-.55-.6-13.72-14.75-38.42-23.49-26.91-9.56-68.3-7.22-93.17-18.35-15.11-6.76-22.5-16.45-26-23.38a35.61,35.61,0,0,1-4.1-13.65.7.7,0,0,1,1.41,0,35,35,0,0,0,4,13.13c3.44,6.71,10.62,16.08,25.32,22.66,24.62,11,65.93,8.67,93.07,18.31,25,8.86,38.43,23.25,39,23.86a.7.7,0,1,1-1,1Z"/><path class="cls-19" d="M668.59,207.12c-5.87-6.4-18-15.33-34.48-21.2-26-9.32-61.33-9.07-83.55-18.39-15.82-6.64-23.62-16-27.38-22.71-4.1-7.29-4.42-13-4.43-13.19a.7.7,0,0,1,1.41-.07h0a32.12,32.12,0,0,0,4.29,12.64c3.66,6.48,11.25,15.56,26.65,22,11.22,4.71,25.75,6.92,41.13,9.27,14.53,2.22,29.55,4.51,42.35,9.1,16.72,6,29.07,15.06,35,21.58A.7.7,0,0,1,668.59,207.12Z"/><path class="cls-19" d="M668,199.63c-25.13-27.4-76-26.31-104.46-37.35-16.55-6.43-24.77-15.51-28.74-22-4.34-7.07-4.72-12.56-4.73-12.79a.7.7,0,0,1,1.41-.09c0,.1.41,5.46,4.57,12.21,3.87,6.27,11.87,15.06,28,21.33,28.32,11,79.45,9.87,105,37.71a.7.7,0,0,1-1,1Z"/><path class="cls-5" d="M558.75,144.05h0c-2.33-2.43-5.28-9.51-7-13.75-2.37-5.69-2.08-4.52-3-5-1.89-.38-.3,1-15.39,31.85-6.25-8.18-24.18-6.17-24.13,3.33,0,4.91,5.21,9.3,12.2,9.26,4.86,0,9.22-2.25,11.12-5.67h0c.5-.9,7.06-14.31,12.46-25.17,1.89,7.18,10.33,12.41,15.6,8.94l1.59-1.05-1.62-1A14.68,14.68,0,0,1,558.75,144.05Z"/><path class="cls-5" d="M656.24,173.56h0c-2.86-.82-8.31-4.94-11.56-7.41-3.44-2.6-3.8-2.88-4.65-2.52-1.79.61.07,1.43,2.28,31.7-8.59-3.27-21.35,6-17,13.36,4.6,7.79,20,1.88,19.84-7.78h0c0-.92-1-16.28-1.68-26.85,4.77,4.49,13.49,6.87,16,1.8l.85-1.71C658.09,174,659,174.37,656.24,173.56Z"/><path class="cls-5" d="M609.43,173.77c0-1.28-1-15.23-2.1-32.36-18,1.91-17.39,2.09-34-.55.55,8.8,1.15,17.64,1.66,24.76-8.72-3.33-19.54,6.89-15.25,14.15,4.63,7.84,19.17-.38,19-10,0,0-1-7.66-1.8-19.87l28,.26c.26,3.78.57,11.2,1.1,18.45-8.67-3.3-20.78,5.64-16.47,12.93,2.37,4,8.54,4.78,13.75,1.7,3.77-2.23,6.16-5.95,6.09-9.48Z"/><path class="cls-20" d="M972.59,92.51h0c-2.84.9-9.66.47-13.73.21-4.31-.27-4.76-.3-5.27.47-1.16,1.5-1.05,1.47,17.51,25.48-9,2-12.58,16.49-4.9,20.22,8.13,3.95,17.73-9.5,12.24-17.44h0c-.53-.75-8.59-11.2-15-19.62,6.46,1.11,13.82-3.56,13.12-9.17l-.24-1.89C974.37,91.85,975.37,91.65,972.59,92.51Z"/><path class="cls-11" d="M608.26,37.48c.14-1.27,1.1-15.22,2.29-32.35C592.46,4.59,593,4.86,577,0c-.64,8.79-1.24,17.64-1.7,24.75-8.19-4.47-20.29,4.18-17,12,3.53,8.4,19.6,4.52,20.7-5h0c.1-.88.58-8.63,1.41-20.85l25.27,3.73c-.25,3.78-.57,8.72-1,16-8.15-4.45-20.31,4.15-17,12,1.81,4.3,7.81,5.89,13.39,3.55,4-1.7,6.91-5.06,7.31-8.57Z"/><polygon class="cls-21" points="283.19 137.91 292.52 145.47 303.53 140.11 313.39 149.33 323.36 140 334.97 149.94 345.2 142.47 357.94 150.21 355.01 155.03 345.49 149.25 334.68 157.12 323.52 147.57 313.39 157.06 302.51 146.88 291.76 152.12 283.11 145.1 276.77 150.02 273.31 145.57 283.19 137.91"/><path class="cls-6" d="M1002.12,337.25a10.35,10.35,0,0,0,.91,2.59,9.52,9.52,0,0,1,7-2.46l1.15-3.58C1008.5,333.67,1004.55,334.11,1002.12,337.25Z"/><path class="cls-6" d="M1009.28,353.52c1.66-4.81,3.35-9.92,5-15l-.33-.19a8.8,8.8,0,0,0-1.5-.61,8.06,8.06,0,0,0-1.77-.33l-.7,0c-1.76,5.53-3.48,11-5.07,16A13.21,13.21,0,0,0,1009.28,353.52Z"/><path class="cls-6" d="M997.17,374.52s-2.41,4.13-5.74,3.72c0,0-3.82-.35-1.74-4.19l.11-.32A1.39,1.39,0,0,0,989,372a1.57,1.57,0,0,0-1.89.74,4.08,4.08,0,0,0-.66,2c-.52,6.24,7,8.24,11.34,4.4,2.72-2.36,6.13-10.53,9.78-20.76a25.74,25.74,0,0,1-4-.55C1000.84,366.15,998.6,372.5,997.17,374.52Z"/><path class="cls-6" d="M1005,353.4q-.74,2.31-1.44,4.48a25.74,25.74,0,0,0,4,.55c.57-1.59,1.14-3.23,1.72-4.91A13.21,13.21,0,0,1,1005,353.4Z"/><path class="cls-6" d="M1011.17,333.79a15.64,15.64,0,0,1,2.78.36,13.77,13.77,0,0,1,1.64.55c1.46-4.37,2.9-8.64,4.31-12.6q-3,.91-5.49,1.88C1013.32,327.17,1012.24,330.47,1011.17,333.79Z"/><path class="cls-6" d="M1016.7,317.4c-.76,2.12-1.53,4.32-2.3,6.58q2.52-1,5.49-1.88c.8-2.26,1.59-4.42,2.37-6.44C1020.43,316.29,1018.57,316.85,1016.7,317.4Z"/><path class="cls-6" d="M995.64,342.84c-.27-2.1-.19-11.55,18.76-18.86.77-2.26,1.54-4.47,2.3-6.58-2.2.65-4.41,1.28-6.58,2-5.25,1.72-10.66,3.83-14.7,7.54-5.26,4.84-6.61,12-5,18.64a15.63,15.63,0,0,0,5.63,9,19.4,19.4,0,0,0,7.51,3.31q.7-2.16,1.44-4.48C1000.51,352.52,996.46,349.24,995.64,342.84Z"/><path class="cls-6" d="M1038.7,304.24c-.59-4.94-5.7-12.75-12-7.49-2.84,2.38-6.37,10.49-10,20.64,1.87-.55,3.73-1.11,5.56-1.74,4-10.33,7.45-16.91,9.82-14.22a6.86,6.86,0,0,1,.86,7.13c-1.23,2.94-4.46,4.63-7.36,5.84-1.09.46-2.21.87-3.33,1.25-.77,2-1.56,4.18-2.37,6.44.86-.26,1.74-.52,2.66-.77,5.76-1.59,11.61-5.24,13.89-8.52A12.93,12.93,0,0,0,1038.7,304.24Z"/><path class="cls-6" d="M1015.47,339.34a8.8,8.8,0,0,1,2.18,2.72c-.33-.66,2.24,3-1,7.4a11,11,0,0,1-7.41,4.06c-.58,1.68-1.15,3.32-1.72,4.91l.65,0c16,.53,19.39-18.89,7.37-23.76l-1.27,3.83A7.7,7.7,0,0,1,1015.47,339.34Z"/><path class="cls-6" d="M1011.17,333.79l-1.15,3.58.7,0a8.06,8.06,0,0,1,1.77.33,8.8,8.8,0,0,1,1.5.61l.33.19,1.27-3.83a13.77,13.77,0,0,0-1.64-.55A15.64,15.64,0,0,0,1011.17,333.79Z"/><ellipse class="cls-6" cx="1004.5" cy="340.64" rx="5.13" ry="3.65" transform="translate(455.61 1248.26) rotate(-77.57)"/><ellipse class="cls-6" cx="990.15" cy="374.58" rx="5.13" ry="3.65" transform="translate(411.22 1260.89) rotate(-77.57)"/><rect class="cls-3" x="230.22" y="524.76" width="330.77" height="330.77" rx="129.88" ry="129.88" transform="translate(1085.75 294.53) rotate(90)"/><path class="cls-2" d="M310,468.94c.39-12.85-4.33-139.13,27.59-239,21.76-68.2,46-97.67,75-121.53,1.32-1,2.62-2.09,4-3.11s2.67-2,4-3l4.08-2.89C519.27,33.75,711,30.76,791.55,130c29.41,35.69,48.9,93.24,57.42,139.1,14.84,79.69,10.65,166.87,8.58,252.68h-38.8c-7-106.67,4.44-240.67-44.81-338.92l-1.85-3.61c-2.19-2.55-28.44-66.51-113.24-97.17-107-36.15-216.87,16.3-253.7,113.48-33.59,86.15-30.36,187.14-30.44,273.41Z"/><rect class="cls-2" x="281.11" y="403.63" width="118.04" height="170.23"/><path class="cls-3" d="M399.15,501.37a135.55,135.55,0,0,0-26.28-2.56h-61a135.26,135.26,0,0,0-30.75,3.52v71.52h118Z"/><path class="cls-20" d="M392.52,112.05c2.75,5.14,8.44,7.51,12.84,5.27s5.9-8.41,3.2-13.72-8.5-7.77-13-5.51a7.83,7.83,0,0,0-2.85,2.49l-7.09-15.25,26-4.56,12.12,26.07h0l0,.09c2.7,5.31,8.5,7.77,13,5.51s5.9-8.41,3.2-13.72-8.5-7.77-13-5.51a7.82,7.82,0,0,0-2.85,2.48l-13-27.93a2,2,0,0,0-2.15-1.27l-32.4,6.57a1.83,1.83,0,0,0-1,2.69l16.88,36.29Z"/><rect class="cls-2" x="182.09" y="537.86" width="330.77" height="304.57" rx="124.63" ry="124.63" transform="translate(1037.62 342.67) rotate(90)"/><path class="cls-3" d="M308.78,592.08h36.08a66,66,0,0,1,66,66v36.08a66,66,0,0,1-66,66H308.78a66,66,0,0,1-66-66V658.07a66,66,0,0,1,66-66Z" transform="translate(1002.93 349.29) rotate(90)"/><rect class="cls-2" x="211.69" y="592.08" width="168.05" height="168.05" rx="65.99" ry="65.99" transform="translate(971.82 380.4) rotate(90)"/><path class="cls-18" d="M1186.32,371.41c1.93,5.17,5.26,13.31,5.26,13.31.09,2.33.55,12,1.14,23.94l16.52-9s-2.49-19.2-1.85-20.47c.54-1.07,1.78,0,6.2-8.2,1.27-2.38,1.1-6.33,1.1-6.33s-.26-4.87-1.39-5.19a2.27,2.27,0,0,0-2.59,1.43c-.29.88,0,2.81-.26,3.69s-2.68,2.18-3.74,2.26-1.56-14.3-1.56-14.3.11-4.11.25-5.46c.12-1.16.75-4.58.75-4.58s.63-4.93-.9-5.12c-.9-.11-2.67,4-3.72,8.36-1.12,4.64-1.5,9.47-2,9.46-1.12,0-1.46-7.89-1.46-7.89a25.18,25.18,0,0,0,.45-5.39c.8-2.19,1-6.11-.84-6.21-.35,0-2.19,5.14-2.19,5.14s-.54,3.54-.91,5.21c-.64,2.94-.26,7.42-.54,9.45-.23,1.69-.69,1.06-.86,1.15a41.49,41.49,0,0,1-.26-5.35,31.56,31.56,0,0,1-.22-5.19,37.82,37.82,0,0,0,.1-5.52c-.18-4.07-2.67-3.36-3.11.44-.17,1.45-.34,3-.5,4.62-.65,6.21.08,12-.56,12.16-.84.16-1.54-10.51-1.54-10.51s-2-5.72-2.64-.11a47.85,47.85,0,0,0,.07,11.87C1184.85,360.58,1184.39,366.24,1186.32,371.41Z"/><path class="cls-22" d="M1291.23,430.34s-8.17-8.61-14.74,1.86a6.53,6.53,0,0,0-8.61,2.22s-9.15-2.75-11.37,10.92c0,0-4.71-.89-5.33,4.71a13.84,13.84,0,0,0,2.22,9.32s-2.64,2-1.44,7.13a6.36,6.36,0,0,0,4.64,5s1,7.37,4.17,9.59,7.55,1.15,7.55,1.15,1.15,4,4.88,3.64,8.35-3.91,12.52-2.31,15-.09,15-.09,12.16-5.42,8.52-17.85c0,0,6.39-5.77.8-12.7,0,0,4.08-10.83-4-17.23S1291.23,430.34,1291.23,430.34Z"/><path class="cls-12" d="M1361.93,359.84l1,16.56-3.68,28.2-15.82.15s3.52-17.82,1.1-22.05c-1.91-3.33-4.26-8.48-4.44-10.34C1339.51,366,1361.93,359.84,1361.93,359.84Z"/><path class="cls-2" d="M1341.49,369l6.75,12.83c2,3.77,6.45,3.65,8.21-.27l2.66-7.44S1347.75,364.42,1341.49,369Z"/><path class="cls-1" d="M1293.12,344.44l33.79,3.45a5.26,5.26,0,0,1,4.07,2.67l16.27,29.32a5.3,5.3,0,0,0,9.42-.38L1370.45,349a5.24,5.24,0,0,1,3.84-3l33.39-6.15a5.14,5.14,0,0,0,2.55-8.93L1385,308.59a5.12,5.12,0,0,1-1.7-4.51l4.37-33.12a5.25,5.25,0,0,0-7.85-5.14l-29.4,16.74a5.34,5.34,0,0,1-4.89.2l-30.69-14.32a5.23,5.23,0,0,0-7.4,5.75l7.11,32.66a5.11,5.11,0,0,1-1.32,4.63l-23.34,24.27A5.15,5.15,0,0,0,1293.12,344.44Z"/><path class="cls-12" d="M1235,791.15s-8.9,11-11.12,12.39,1,17.39,7,18.44c3.4.59,5.12-4.13,5.12-4.13l-.8-3.64,12.71-13.1Z"/><path class="cls-12" d="M1280.83,793.88s-7.42,12.08-9.44,13.71,3.2,17.12,9.33,17.39c3.45.15,4.55-4.75,4.55-4.75l-1.26-3.51,10.94-14.62Z"/><path class="cls-22" d="M1271.83,807.12a93.66,93.66,0,0,0,6.59,7.59,78.27,78.27,0,0,0,6.84,5.52s4.35,7.9,5.54,10.66c2.65,6.14,5.62,13,5.19,16.41-.14,1.1-2.62,2.27-4.68,1.64-8.6-2.64-30.58-22.75-33.35-28.15C1254.76,814.56,1271.83,807.12,1271.83,807.12Z"/><path class="cls-10" d="M1334.57,623.12c-.8-2.23-1.56-4.3-2.3-6.25-9.14,2-19.47,4.19-30.09,6.45l-1.29,38.94c0-3,8,62.1,8,62.1s-18.78,45.24-32.9,71.88c5.79,7.23,7.33,8.26,15.72,13.19,21.92-26.27,49.92-72.58,51.11-80.58C1343.48,724.26,1344.1,649.93,1334.57,623.12Z"/><path class="cls-20" d="M1253,634.38c2.79,30.34,9,88.35,8.48,93-1.56,5.82-28.06,59.49-33,67.3,3.95,5.95,9.77,11.54,16.34,13.32,1.3.35,46.06-63.7,48.55-68.85,2.81-5.82,7.49-37.58,7.57-76.9l1.29-38.94C1284.47,627.1,1268.2,630.8,1253,634.38Z"/><path class="cls-2" d="M1311.09,496.08l-20.83,2.86s-16.7.41-18.77.41-15.15,76-18.94,104.6-.85,33.67-.85,33.67,26.42,5.94,46,4.21c20.32-1.8,43.19-12.77,43.19-12.77s-16.37-53.71-19.81-70.87S1311.09,496.08,1311.09,496.08Z"/><path class="cls-5" d="M1361.61,404s1.34,56.67-.8,61c-3.11,6.3-38.09,51-38.09,51s16.71,69.94,23.74,94.09c.71,2.43,3.84,18.14,3.84,19.67,0,3.4-14.78,7.71-16.54,7.45-1.57-.23-14.47-66.76-22.71-99.31a93.13,93.13,0,0,0-14.13-30.76l-5.73-8.14,44-44.05s5.42-49,5.42-53.1C1340.56,400.81,1359.48,400,1361.61,404Z"/><path class="cls-5" d="M1272.24,499.24l-54.81-55.84s-7.64-52.81-8.18-54.8-14.14-3-19.63-3.54c-1.76-.17.92,56.25,3.54,65.7,3.1,11.17,44.53,62.07,44.53,62.07s7.43,27.57,5.64,47.79c-3,33.59-11,79.79-9.54,81.24,8.91,5.61,43.09,6.21,45.26,2.73C1302.94,606.12,1272.24,499.24,1272.24,499.24Z"/><path class="cls-12" d="M1289.85,488.81l1.48,11s3.31,15.81-.95,18.85-18.12-19.3-18.12-19.3l1.46-27.8Z"/><path class="cls-2" d="M1273.25,480.54c3.52,9.48,11.9,15.31,17.86,17.57l-1.25-9.3-16.13-17.28Z"/><ellipse class="cls-22" cx="1256.42" cy="452.64" rx="5.38" ry="7.67"/><ellipse class="cls-22" cx="1273.72" cy="436.16" rx="6.54" ry="4.41"/><path class="cls-12" d="M1283.57,442.33A14.66,14.66,0,0,1,1302.76,454a110.74,110.74,0,0,1,1.19,14.08c.23,12.81-6.4,25.28-12.22,25.28s-21.9-8.29-22.48-26.49C1268.89,455.65,1274.5,445.45,1283.57,442.33Z"/><ellipse class="cls-12" cx="1269.35" cy="468.32" rx="4.18" ry="5.12"/><path class="cls-22" d="M1308.78,436c6,4.76,8.12,12,4.7,16.16s-11.05,3.68-17.06-1.08-8.12-12-4.7-16.16S1302.77,431.19,1308.78,436Z"/><ellipse class="cls-22" cx="1287.49" cy="439.86" rx="5.58" ry="3.75"/><ellipse class="cls-22" cx="1304.91" cy="455.78" rx="4.76" ry="4.82"/><path class="cls-12" d="M1344.5,376.3l3-4.7s5.13-4.53,3.78-6.34c-2.25-3-10.05,4.29-10.05,4.29S1340.31,376.1,1344.5,376.3Z"/><path class="cls-12" d="M1363,376.4s1.38-11.21,1.12-11.55c-1.49-1.86-6.19-5-7.92-4.26s2.26,6.66,2.26,6.66a4.05,4.05,0,0,0-3,2.73C1354.89,372.19,1363,376.4,1363,376.4Z"/><path class="cls-22" d="M1224.37,803.13a93.57,93.57,0,0,0,5.56,8.37,78.45,78.45,0,0,0,6.08,6.35s3.31,8.39,4.14,11.28c1.84,6.42,3.92,14.18,3.06,17.53-.28,1.08-2.65,3.13-4.6,1.86-7.54-4.91-27.68-27.9-29.74-33.6C1206.49,808.34,1224.37,803.13,1224.37,803.13Z"/></g></g></svg>