<svg xmlns="http://www.w3.org/2000/svg" xmlns:xlink="http://www.w3.org/1999/xlink" viewBox="0 0 293 258.53"><defs><style>.cls-1,.cls-2,.cls-3,.cls-4,.cls-6,.cls-8{stroke:#000;}.cls-1,.cls-2,.cls-3,.cls-4,.cls-6{stroke-linecap:round;stroke-linejoin:round;stroke-width:8px;}.cls-1{fill:url(#linear-gradient);}.cls-2{fill:url(#linear-gradient-2);}.cls-3{fill:url(#linear-gradient-3);}.cls-4{fill:url(#linear-gradient-4);}.cls-5{fill:#fff;}.cls-6{fill:none;}.cls-7{fill:#f6d198;}.cls-8{stroke-miterlimit:10;stroke-width:3px;}</style><linearGradient id="linear-gradient" x1="218.55" y1="234.36" x2="74.42" y2="90.24" gradientUnits="userSpaceOnUse"><stop offset="0" stop-color="#16817a"/><stop offset="0.06" stop-color="#298279"/><stop offset="0.25" stop-color="#678677"/><stop offset="0.43" stop-color="#9a8a75"/><stop offset="0.61" stop-color="#c38d73"/><stop offset="0.76" stop-color="#df8e72"/><stop offset="0.9" stop-color="#f19071"/><stop offset="1" stop-color="#f79071"/></linearGradient><linearGradient id="linear-gradient-2" x1="218.53" y1="168.27" x2="74.44" y2="24.18" xlink:href="#linear-gradient"/><linearGradient id="linear-gradient-3" x1="4" y1="115.76" x2="289" y2="115.76" xlink:href="#linear-gradient"/><linearGradient id="linear-gradient-4" x1="4" y1="142.76" x2="289" y2="142.76" xlink:href="#linear-gradient"/></defs><title>love</title><g id="Layer_2" data-name="Layer 2"><g id="Layer_1-2" data-name="Layer 1"><path class="cls-1" d="M271,142.76a125.28,125.28,0,0,1-249.09-.05"/><path class="cls-2" d="M21.95,115.82A125.28,125.28,0,0,1,271,115.76"/><line class="cls-3" x1="4" y1="115.76" x2="289" y2="115.76"/><line class="cls-4" x1="4" y1="142.76" x2="289" y2="142.76"/><ellipse class="cls-5" cx="146.5" cy="129.26" rx="100.64" ry="102.11"/><path class="cls-6" d="M250,142.76a104.36,104.36,0,0,1-207-.11"/><path class="cls-6" d="M43,115.87a104.36,104.36,0,0,1,207-.1"/><circle class="cls-7" cx="146.5" cy="129.26" r="41.44"/><path class="cls-8" d="M180.67,73.87c-15.36,0-25.09,9.17-30.54,16.87a55.89,55.89,0,0,0-3.63,5.88,55.85,55.85,0,0,0-3.63-5.88c-5.45-7.7-15.18-16.87-30.54-16.87A36.94,36.94,0,0,0,84.25,86.52a44.19,44.19,0,0,0-10.64,29.35c0,12.13,4.74,23.41,14.9,35.51,9.09,10.81,22.16,21.95,37.3,34.85,5.64,4.81,11.47,9.78,17.69,15.21l.19.16a4.27,4.27,0,0,0,5.63,0l.19-.16c6.21-5.43,12-10.4,17.69-15.21,15.14-12.9,28.21-24,37.3-34.85,10.17-12.09,14.9-23.37,14.9-35.51a44.19,44.19,0,0,0-10.64-29.35A36.94,36.94,0,0,0,180.67,73.87Zm-19,105.85c-4.86,4.14-9.87,8.41-15.15,13-5.28-4.59-10.28-8.85-15.15-13-29.63-25.25-49.2-41.93-49.2-63.85a35.66,35.66,0,0,1,8.5-23.7,28.51,28.51,0,0,1,21.68-9.76c11.71,0,19.28,7.21,23.57,13.27a50.63,50.63,0,0,1,6.54,13,4.27,4.27,0,0,0,8.12,0,50.64,50.64,0,0,1,6.54-13c4.29-6.05,11.86-13.27,23.57-13.27a28.51,28.51,0,0,1,21.68,9.76,35.66,35.66,0,0,1,8.5,23.7C210.85,137.8,191.27,154.48,161.65,179.72Z"/></g></g></svg>