<svg xmlns="http://www.w3.org/2000/svg" xmlns:xlink="http://www.w3.org/1999/xlink" viewBox="0 0 293 258.53"><defs><style>.cls-1,.cls-7{fill:none;}.cls-2,.cls-3,.cls-4,.cls-5,.cls-7{stroke:#000;stroke-linecap:round;stroke-linejoin:round;stroke-width:8px;}.cls-2{fill:url(#linear-gradient);}.cls-3{fill:url(#linear-gradient-2);}.cls-4{fill:url(#linear-gradient-3);}.cls-5{fill:url(#linear-gradient-4);}.cls-6{fill:#fff;}.cls-8{fill:#f6d198;}.cls-9{clip-path:url(#clip-path);}</style><linearGradient id="linear-gradient" x1="218.55" y1="234.36" x2="74.42" y2="90.24" gradientUnits="userSpaceOnUse"><stop offset="0" stop-color="#16817a"/><stop offset="0.06" stop-color="#298279"/><stop offset="0.25" stop-color="#678677"/><stop offset="0.43" stop-color="#9a8a75"/><stop offset="0.61" stop-color="#c38d73"/><stop offset="0.76" stop-color="#df8e72"/><stop offset="0.9" stop-color="#f19071"/><stop offset="1" stop-color="#f79071"/></linearGradient><linearGradient id="linear-gradient-2" x1="218.53" y1="168.27" x2="74.44" y2="24.18" xlink:href="#linear-gradient"/><linearGradient id="linear-gradient-3" x1="4" y1="115.76" x2="289" y2="115.76" xlink:href="#linear-gradient"/><linearGradient id="linear-gradient-4" x1="4" y1="142.76" x2="289" y2="142.76" xlink:href="#linear-gradient"/><clipPath id="clip-path"><rect class="cls-1" x="70.56" y="29.24" width="152" height="175.81"/></clipPath></defs><title>sleep</title><g id="Layer_2" data-name="Layer 2"><g id="Layer_1-2" data-name="Layer 1"><path class="cls-2" d="M271,142.76a125.28,125.28,0,0,1-249.09-.05"/><path class="cls-3" d="M21.95,115.82A125.28,125.28,0,0,1,271,115.76"/><line class="cls-4" x1="4" y1="115.76" x2="289" y2="115.76"/><line class="cls-5" x1="4" y1="142.76" x2="289" y2="142.76"/><ellipse class="cls-6" cx="146.5" cy="129.26" rx="100.64" ry="102.11"/><path class="cls-7" d="M250,142.76a104.36,104.36,0,0,1-207-.11"/><path class="cls-7" d="M43,115.87a104.36,104.36,0,0,1,207-.1"/><circle class="cls-8" cx="146.5" cy="129.26" r="41.44"/><g class="cls-9"><path d="M217.37,148.36a8.33,8.33,0,0,0-6.77-.16l-.29.13A62.08,62.08,0,0,1,130.6,64.66a8.32,8.32,0,0,0-10.7-11.23,78.75,78.75,0,1,0,101.45,106,8.31,8.31,0,0,0-4-11ZM123.84,62.94h0Zm52,126.64A68.46,68.46,0,0,1,119.27,65a72.4,72.4,0,0,0,90.47,94.51,68.27,68.27,0,0,1-33.86,30.06Zm0,0"/></g><path d="M170.1,92.43h-7.89L173.62,80a4.77,4.77,0,0,0-3.52-8H151.37a4.77,4.77,0,1,0,0,9.53h7.89L147.85,94a4.77,4.77,0,0,0,3.52,8H170.1a4.77,4.77,0,1,0,0-9.54Zm0,0"/><path d="M180.91,104.58a4.77,4.77,0,0,0,4.37,2.84h15a4.77,4.77,0,1,0,0-9.53h-4.13l7.65-8.36a4.77,4.77,0,0,0-3.52-8h-15a4.77,4.77,0,1,0,0,9.53h4.13l-7.65,8.36a4.76,4.76,0,0,0-.84,5.14Zm0,0"/><path d="M164.7,138.39a4.77,4.77,0,0,0,4.37,2.84h15a4.77,4.77,0,1,0,0-9.53H179.9l7.65-8.36a4.77,4.77,0,0,0-3.52-8h-15a4.77,4.77,0,1,0,0,9.53h4.13l-7.65,8.36a4.76,4.76,0,0,0-.84,5.14Zm0,0"/></g></g></svg>