<svg xmlns="http://www.w3.org/2000/svg" viewBox="0 0 935.5 798.44"><defs><style>.cls-1{fill:#f6d198;}.cls-2{fill:#f79071;}.cls-2,.cls-3,.cls-4,.cls-5{stroke:#000;stroke-linecap:round;stroke-linejoin:round;}.cls-2,.cls-3,.cls-4{stroke-width:9px;}.cls-3,.cls-5{fill:none;}.cls-4{fill:#16817a;}.cls-5{stroke-width:8px;}.cls-6{font-size:192px;font-family:MotherlineDEMO, Motherline DEMO;}</style></defs><title>Asset 1</title><g id="Layer_2" data-name="Layer 2"><g id="Layer_1-2" data-name="Layer 1"><circle class="cls-1" cx="484" cy="402.72" r="78.91"/><path class="cls-2" d="M484,165.11a215.23,215.23,0,0,1,170.44,83.57l164.93-38.61C757.17,88.06,630.34,4.5,484,4.5c-206.42,0-374,166.24-376.19,372.15l164.81-38.58C292.42,239.42,379.53,165.11,484,165.11Z"/><path class="cls-3" d="M329.25,90.79c-69.43,18.37-120.59,75.84-134.94,134.78"/><path class="cls-3" d="M319.74,122.57c-43.31,18.21-74.46,54.3-90,95"/><path class="cls-3" d="M319.44,157.81C293.7,167.52,276.26,186.29,268,212"/><path class="cls-4" d="M484,165.11c-104.47,0-191.58,74.31-211.38,173l381.82-89.39A215.23,215.23,0,0,0,484,165.11Z"/><path class="cls-2" d="M484,793.94c204.83,0,371.42-163.69,376.11-367.39l-165.8,38.81c-21.69,96.15-107.61,168-210.31,168a215.17,215.17,0,0,1-167.26-79.57L150.82,592.6C213.78,712.31,339.35,793.94,484,793.94Z"/><path class="cls-4" d="M484,633.32c102.7,0,188.62-71.81,210.31-168L316.74,553.76A215.17,215.17,0,0,0,484,633.32Z"/><line class="cls-5" x1="68.5" y1="609.72" x2="931.5" y2="408.72"/><line class="cls-5" x1="28.5" y1="395.72" x2="891.5" y2="194.72"/><text class="cls-6" transform="translate(83.93 552.48) rotate(-14.04)">V</text><text class="cls-6" transform="translate(199.78 523.52) rotate(-14.04)">i</text><text class="cls-6" transform="translate(251.01 510.71) rotate(-14.04)">b</text><text class="cls-6" transform="matrix(0.97, -0.24, 0.24, 0.97, 327.19, 491.66)">e</text><text class="cls-6" transform="translate(394.99 474.71) rotate(-14.04)">R</text><text class="cls-6" transform="translate(610.34 420.88) rotate(-14.04)">a<tspan x="93.1" y="0">t</tspan></text><text class="cls-6" transform="matrix(0.97, -0.24, 0.24, 0.97, 758.03, 383.96)">e</text><text class="cls-6" transform="translate(826.4 366.86) rotate(-14.04)">r</text></g></g></svg>